<?xml version="1.0" encoding="UTF-8" standalone="no"?>
<!-- Created with Inkscape (http://www.inkscape.org/) -->

<svg
   width="210mm"
   height="210mm"
   viewBox="0 0 210 210"
   version="1.1"
   id="svg1"
   xml:space="preserve"
   xmlns="http://www.w3.org/2000/svg"
   xmlns:svg="http://www.w3.org/2000/svg"><defs
     id="defs1" /><g
     id="layer1"><path
       fill-rule="nonzero"
       fill="#242424"
       fill-opacity="1"
       d="M 0,45.937508 C 0,27.808536 14.68358,13.125026 32.812511,13.125026 h 33.940378 c 5.229501,0 10.233384,2.07126 13.924847,5.762724 L 98.437474,36.647492 71.387697,63.697244 c -1.230726,1.23074 -2.891551,1.927824 -4.634808,1.927824 H 0 Z m 0,32.812499 v 85.312473 c 0,18.12898 14.68358,32.81249 32.812511,32.81249 H 177.18752 C 195.31634,196.87497 210,182.19146 210,164.06248 V 72.187509 C 210,54.058559 195.31634,39.375031 177.18752,39.375031 H 114.28996 L 80.677736,72.987273 c -3.691463,3.691449 -8.695346,5.762734 -13.924847,5.762734 z m 0,0"
       id="path1"
       style="fill:#0970e9;fill-opacity:1;stroke-width:5.24999" /><path
       id="rect1"
       style="fill:#e90909;fill-opacity:1;stroke-width:0.330619"
       d="m 130.23539,39.375042 v 88.920548 l 23.71717,-23.71716 23.71658,23.71658 V 39.375042 Z" /></g></svg>
